<mxfile host="app.diagrams.net" agent="Mozilla/5.0 (Windows NT 10.0; Win64; x64) AppleWebKit/537.36 (KHTML, like Gecko) Chrome/134.0.0.0 Safari/537.36 Edg/134.0.0.0" version="26.1.1">
  <diagram name="PÃ¡gina-1" id="-ktgDtrw-NPiQ7I-t3oX">
    <mxGraphModel dx="1112" dy="469" grid="1" gridSize="10" guides="1" tooltips="1" connect="1" arrows="1" fold="1" page="1" pageScale="1" pageWidth="827" pageHeight="1169" math="0" shadow="0">
      <root>
        <mxCell id="0" />
        <mxCell id="1" parent="0" />
        <mxCell id="ZHoR4tpnSlbrk5cEiMxM-3" value="" style="edgeStyle=orthogonalEdgeStyle;rounded=0;orthogonalLoop=1;jettySize=auto;html=1;" edge="1" parent="1" source="ZHoR4tpnSlbrk5cEiMxM-1" target="ZHoR4tpnSlbrk5cEiMxM-2">
          <mxGeometry relative="1" as="geometry" />
        </mxCell>
        <mxCell id="ZHoR4tpnSlbrk5cEiMxM-1" value="inicio" style="ellipse;whiteSpace=wrap;html=1;fillColor=#FFE599;" vertex="1" parent="1">
          <mxGeometry x="340" y="70" width="120" height="80" as="geometry" />
        </mxCell>
        <mxCell id="ZHoR4tpnSlbrk5cEiMxM-5" value="" style="edgeStyle=orthogonalEdgeStyle;rounded=0;orthogonalLoop=1;jettySize=auto;html=1;" edge="1" parent="1" source="ZHoR4tpnSlbrk5cEiMxM-2" target="ZHoR4tpnSlbrk5cEiMxM-4">
          <mxGeometry relative="1" as="geometry" />
        </mxCell>
        <mxCell id="ZHoR4tpnSlbrk5cEiMxM-2" value="cotacao, valorreais" style="shape=parallelogram;perimeter=parallelogramPerimeter;whiteSpace=wrap;html=1;fixedSize=1;fillColor=#FFE599;" vertex="1" parent="1">
          <mxGeometry x="330" y="240" width="140" height="60" as="geometry" />
        </mxCell>
        <mxCell id="ZHoR4tpnSlbrk5cEiMxM-7" value="" style="edgeStyle=orthogonalEdgeStyle;rounded=0;orthogonalLoop=1;jettySize=auto;html=1;" edge="1" parent="1" source="ZHoR4tpnSlbrk5cEiMxM-4" target="ZHoR4tpnSlbrk5cEiMxM-6">
          <mxGeometry relative="1" as="geometry" />
        </mxCell>
        <mxCell id="ZHoR4tpnSlbrk5cEiMxM-4" value="resultado=(valorreais/cotacao)" style="whiteSpace=wrap;html=1;fillColor=#FFE599;" vertex="1" parent="1">
          <mxGeometry x="305" y="380" width="190" height="60" as="geometry" />
        </mxCell>
        <mxCell id="ZHoR4tpnSlbrk5cEiMxM-9" value="" style="edgeStyle=orthogonalEdgeStyle;rounded=0;orthogonalLoop=1;jettySize=auto;html=1;" edge="1" parent="1" source="ZHoR4tpnSlbrk5cEiMxM-6" target="ZHoR4tpnSlbrk5cEiMxM-8">
          <mxGeometry relative="1" as="geometry" />
        </mxCell>
        <mxCell id="ZHoR4tpnSlbrk5cEiMxM-6" value="resultado" style="shape=document;whiteSpace=wrap;html=1;boundedLbl=1;fillColor=#FFE599;" vertex="1" parent="1">
          <mxGeometry x="340" y="510" width="120" height="80" as="geometry" />
        </mxCell>
        <mxCell id="ZHoR4tpnSlbrk5cEiMxM-8" value="fim" style="ellipse;whiteSpace=wrap;html=1;fillColor=#FFE599;" vertex="1" parent="1">
          <mxGeometry x="360" y="670" width="80" height="80" as="geometry" />
        </mxCell>
      </root>
    </mxGraphModel>
  </diagram>
</mxfile>
